<svg xmlns="http://www.w3.org/2000/svg" version="1.1" xmlns:xlink="http://www.w3.org/1999/xlink" xmlns:svgjs="http://svgjs.com/svgjs" width="1440" height="560" preserveAspectRatio="none" viewBox="0 0 1440 560">
    <g mask="url(&quot;#SvgjsMask1000&quot;)" fill="none">
        <rect width="1440" height="560" x="0" y="0" fill="#0e2a47"></rect>
        <path d="M0,306.417C55.858,293.516,109.279,275.966,156.02,242.773C201.134,210.735,232.649,166.45,262.605,119.927C297.24,66.136,340.864,14.401,344.204,-49.489C347.834,-118.923,328.056,-192.276,281.632,-244.036C235.465,-295.51,164.396,-317.399,95.841,-326.403C33.49,-334.592,-27.272,-315.236,-85.827,-292.299C-140.127,-271.028,-185.706,-237.353,-229.576,-198.929C-279.961,-154.799,-342.917,-116.474,-360.397,-51.817C-378.411,14.814,-348.656,83.447,-323.27,147.632C-296.709,214.786,-275.227,295.564,-210.408,327.402C-145.836,359.119,-70.096,322.606,0,306.417" fill="#0b2239"></path>
        <path d="M1440 1070.3C1532.927 1049.154 1610.63 999.283 1698.313 961.942 1807.354 915.506 1940.548 913.585 2018.214 824.062 2103.2960000000003 725.991 2174.407 583.515 2133.525 460.286 2091.93 334.908 1911.473 326.119 1821.065 229.805 1736.259 139.459 1736.651-19.99000000000001 1627.551-78.74099999999999 1515.43-139.11800000000005 1370.848-124.85400000000004 1253.266-75.957 1140.503-29.063999999999965 1064.8 75.92599999999999 1002.72 181.09500000000003 948.2470000000001 273.376 944.221 380.704 921.843 485.5 897.591 599.075 834.608 710.358 865.819 822.22 898.616 939.7660000000001 981.168 1051.237 1093.195 1099.6390000000001 1201.896 1146.604 1324.539 1096.574 1440 1070.3" fill="#113255"></path>
    </g>
    <defs>
        <mask id="SvgjsMask1000">
            <rect width="1440" height="560" fill="#ffffff"></rect>
        </mask>
    </defs>
</svg>