<?xml version="1.0" encoding="utf-8"?>

<svg version="1.0" id="Layer_1" xmlns="http://www.w3.org/2000/svg" xmlns:xlink="http://www.w3.org/1999/xlink" x="0px" y="0px"
	 viewBox="0 0 613.5 376.2" style="enable-background:new 0 0 613.5 376.2;" xml:space="preserve">
<style type="text/css">
	.st0{fill:none;stroke:#E4E4E4;stroke-width:4;stroke-miterlimit:10;stroke-dasharray:32.0882,32.0882;}
	.st1{fill:#F6F5F5;}
	.st2{fill:#A9BAE6;}
	.st3{fill:#E4E4E4;}
	.st4{fill:#FFFFFF;}
	.st5{fill:#708CD5;}
	.st6{fill:#D3DFFF;}
	.st7{fill:#FFFFFF;stroke:#708CD5;stroke-width:6;stroke-miterlimit:10;}
	.st8{fill:#EE6F57;}
	.st9{fill:#F9B384;}
	.st10{fill:#1F3C88;}
	.st11{fill:#E28B6D;}
	.st12{fill:#102048;}
	.st13{opacity:0.6;fill:#102048;}
	.st14{opacity:0.3;fill:#1F3C88;}
	.st15{opacity:0.6;fill:#E28B6D;}
	.st16{fill:#6F3428;}
	.st17{fill:#FBC343;}
	.st18{opacity:0.3;fill:none;stroke:#6F3428;stroke-width:8;stroke-miterlimit:10;}
	.st19{opacity:0.4;fill:#FC8879;}
	.st20{opacity:0.6;fill:#6F3428;}
	.st21{fill:none;stroke:#102048;stroke-width:8;stroke-miterlimit:10;}
</style>
<g>
	<g>
		<g>
			<g>
				<path class="st0" d="M579.1,251.6c29.1,52-13,154.1-279.7,83.1c-133.7-35.6-233.6,44.5-254.2-11.4
					C-2.9,193.1,193,42.4,301.9,147.6C401.4,243.8,526.2,156.9,579.1,251.6z"/>
			</g>
			<path class="st1" d="M577.5,366.1H33.6c17-125.8,132.3-223,271.9-223C445.2,143,560.5,240.3,577.5,366.1z"/>
		</g>
		<g>
			<path class="st2" d="M449.6,365h-90.4c-41,0-74.3-33.3-74.3-74.3V111.3c0-41,33.3-74.3,74.3-74.3h90.4c41,0,74.3,33.3,74.3,74.3
				v179.3C523.9,331.7,490.6,365,449.6,365z"/>
			<g>
				<g>
					<rect x="306.4" y="50.2" class="st1" width="196.8" height="285.8"/>
					<path class="st3" d="M503.2,50.2c0.1,111.5,3.7,245.9-8.9,275.6c-55.1,5.4-119.7,7.1-187.9,7.4l25.9-282.2L503.2,50.2z"/>
					<path class="st4" d="M485.5,316.9c-86,13.8-143.4,14.5-190,11c6-64.3,8.5-171,10.9-277.7L410,50.5l93.7,6.2
						C505.1,167.3,505.2,269.5,485.5,316.9z"/>
				</g>
				<g>
					
						<rect x="351.4" y="77.8" transform="matrix(0.9997 2.352837e-02 -2.352837e-02 0.9997 2.1277 -9.463)" class="st5" width="103.5" height="15.8"/>
					<g>
						<g>
							<g>
								
									<rect x="381.6" y="116.5" transform="matrix(0.9997 2.352839e-02 -2.352839e-02 0.9997 2.9447 -10.0447)" class="st5" width="93.4" height="7.2"/>
								
									<rect x="381.3" y="131.9" transform="matrix(0.9997 2.352875e-02 -2.352875e-02 0.9997 3.3025 -9.68)" class="st6" width="63.5" height="7.2"/>
							</g>
							<g>
								
									<rect x="329.9" y="114.9" transform="matrix(0.9997 2.352853e-02 -2.352853e-02 0.9997 3.0574 -7.9883)" class="st7" width="22.1" height="22.1"/>
								<g>
									<path class="st8" d="M333.8,120.4c0.7,2.6,1.9,13.6,7.4,10.5c1.3-0.7,2.3-2.6,3.3-3.6c1.7-1.9,3.4-3.9,5.1-5.8
										c3.4-3.9,6.8-7.7,10.2-11.6c0.9-1-3-3.5-4.1-2.2c-3,3.4-6,6.9-9.1,10.3c-1.5,1.7-3,3.4-4.5,5.1c-1,1.2-3.5,5-5,5.4
										c0.8,0.3,1.7,0.5,2.5,0.8c0.6,0.5-0.5-3-0.5-3.1c-0.4-1.6-0.8-3.2-1.3-4.8C337.5,120.1,333.3,118.5,333.8,120.4
										L333.8,120.4z"/>
								</g>
							</g>
						</g>
						<g>
							<g>
								
									<rect x="380.7" y="156.5" transform="matrix(0.9997 2.352835e-02 -2.352835e-02 0.9997 3.8831 -9.8174)" class="st5" width="76.9" height="7.2"/>
								
									<rect x="380.3" y="172.4" transform="matrix(0.9997 2.352838e-02 -2.352838e-02 0.9997 4.2601 -9.9982)" class="st6" width="93.4" height="7.2"/>
							</g>
							<g>
								
									<rect x="329" y="155.1" transform="matrix(0.9997 2.352853e-02 -2.352853e-02 0.9997 4.0027 -7.9549)" class="st7" width="22.1" height="22.1"/>
								<g>
									<path class="st8" d="M332.8,161.2c0.7,2.6,1.9,13.6,7.4,10.5c1.3-0.7,2.3-2.6,3.3-3.6c1.7-1.9,3.4-3.9,5.1-5.8
										c3.4-3.9,6.8-7.7,10.2-11.6c0.9-1-3-3.5-4.1-2.2c-3,3.4-6,6.9-9.1,10.3c-1.5,1.7-3,3.4-4.5,5.1c-1,1.2-3.5,5-5,5.4
										c0.8,0.3,1.7,0.5,2.5,0.8c0.6,0.5-0.5-3-0.5-3.1c-0.4-1.6-0.8-3.2-1.3-4.8C336.5,160.9,332.3,159.3,332.8,161.2
										L332.8,161.2z"/>
								</g>
							</g>
						</g>
						<g>
							<g>
								
									<rect x="379.7" y="196.9" transform="matrix(0.9997 2.352863e-02 -2.352863e-02 0.9997 4.8353 -9.978)" class="st5" width="93.4" height="7.2"/>
								
									<rect x="379.4" y="212" transform="matrix(0.9997 2.352825e-02 -2.352825e-02 0.9997 5.1839 -9.3578)" class="st6" width="41.8" height="7.2"/>
							</g>
							<g>
								
									<rect x="328.1" y="195.3" transform="matrix(0.9997 2.352853e-02 -2.352853e-02 0.9997 4.9479 -7.9216)" class="st7" width="22.1" height="22.1"/>
								<g>
									<path class="st8" d="M332.2,201.7c0.7,2.6,1.9,13.6,7.4,10.5c1.3-0.7,2.3-2.6,3.3-3.6c1.7-1.9,3.4-3.9,5.1-5.8
										c3.4-3.9,6.8-7.7,10.2-11.6c0.9-1-3-3.5-4.1-2.2c-3,3.4-6,6.9-9.1,10.3c-1.5,1.7-3,3.4-4.5,5.1c-1,1.2-3.5,5-5,5.4
										c0.8,0.3,1.7,0.5,2.5,0.8c0.6,0.5-0.5-3-0.5-3.1c-0.4-1.6-0.8-3.2-1.3-4.8C335.9,201.3,331.7,199.7,332.2,201.7
										L332.2,201.7z"/>
								</g>
							</g>
						</g>
						<g>
							<g>
								
									<rect x="378.8" y="237.1" transform="matrix(0.9997 2.352838e-02 -2.352838e-02 0.9997 5.7805 -9.9445)" class="st5" width="93.4" height="7.2"/>
								
									<rect x="378.4" y="252.6" transform="matrix(0.9997 2.352849e-02 -2.352849e-02 0.9997 6.1425 -9.7009)" class="st6" width="73.8" height="7.2"/>
							</g>
							<g>
								
									<rect x="327.1" y="235.4" transform="matrix(0.9997 2.352853e-02 -2.352853e-02 0.9997 5.8932 -7.8882)" class="st7" width="22.1" height="22.1"/>
								<g>
									<path class="st8" d="M331.3,241.6c0.7,2.6,1.9,13.6,7.4,10.5c1.3-0.7,2.3-2.6,3.3-3.6c1.7-1.9,3.4-3.9,5.1-5.8
										c3.4-3.9,6.8-7.7,10.2-11.6c0.9-1-3-3.5-4.1-2.2c-3,3.4-6,6.9-9.1,10.3c-1.5,1.7-3,3.4-4.5,5.1c-1,1.2-3.5,5-5,5.4
										c0.8,0.3,1.7,0.5,2.5,0.8c0.6,0.5-0.5-3-0.5-3.1c-0.4-1.6-0.8-3.2-1.3-4.8C335,241.3,330.7,239.7,331.3,241.6L331.3,241.6z
										"/>
								</g>
							</g>
						</g>
						<g>
							<g>
								
									<rect x="377.9" y="276.3" transform="matrix(0.9997 2.352802e-02 -2.352802e-02 0.9997 6.695 -9.2484)" class="st5" width="37" height="7.2"/>
								<path class="st6" d="M471,293.8l-93.4-2.2l-0.2,7.2c36.1,0.8,82.1,2.5,91.5,1.1C470.3,298.3,471.1,296.3,471,293.8z"/>
							</g>
							<g>
								
									<rect x="326.5" y="275.3" transform="matrix(0.9997 2.352850e-02 -2.352850e-02 0.9997 6.8315 -7.8623)" class="st7" width="22.1" height="22.1"/>
								<g>
									<path class="st8" d="M330.3,281.2c0.7,2.6,1.9,13.6,7.4,10.5c1.3-0.7,2.3-2.6,3.3-3.6c1.7-1.9,3.4-3.9,5.1-5.8
										c3.4-3.9,6.8-7.7,10.2-11.6c0.9-1-3-3.5-4.1-2.2c-3,3.4-6,6.9-9.1,10.3c-1.5,1.7-3,3.4-4.5,5.1c-1,1.2-3.5,5-5,5.4
										c0.8,0.3,1.7,0.5,2.5,0.8c0.6,0.5-0.5-3-0.5-3.1c-0.4-1.6-0.8-3.2-1.3-4.8C334,280.8,329.8,279.2,330.3,281.2L330.3,281.2z
										"/>
								</g>
							</g>
						</g>
					</g>
				</g>
			</g>
			<g>
				<path class="st8" d="M448.7,39v22.1H360V39c0-3.5,1.4-6.7,3.7-9c0.3-0.3,0.6-0.6,0.9-0.8c2.2-1.8,5-2.9,8.1-2.9
					c2.3,0,4.5-0.5,6.5-1.5c0.9-0.4,1.7-0.9,2.5-1.5c2.5-1.9,4.5-4.5,5.4-7.7c1-3.2,3-5.9,5.6-7.8c2.5-1.8,5.6-2.8,8.8-2.8h5.5
					c3.2,0,6.3,1,8.8,2.8c2.6,1.9,4.6,4.6,5.6,7.8c1,3.2,2.9,5.8,5.4,7.7c0.8,0.6,1.6,1.1,2.5,1.5c2,1,4.2,1.5,6.5,1.5
					c3.1,0,5.9,1.1,8.1,2.9C446.9,31.5,448.7,35,448.7,39z"/>
				<polygon class="st3" points="455.9,50.2 455.9,66.6 352.8,66.6 352.8,50.2 360,50.2 360,61.1 448.7,61.1 448.7,50.2 				"/>
				<ellipse class="st4" cx="404.3" cy="18.1" rx="7.9" ry="7.5"/>
			</g>
		</g>
		<g>
			<g>
				<path class="st9" d="M234.5,121.4c-3.1-0.6-6.1-5.8-7.1-7.9c-0.3-0.5-0.3-1.1-0.2-1.6l1.3-6.6c0,0,2.9,0.5,2.7,4.3
					c0,0.4,0.1,0.8,0.2,1.2l1.1,2.9l3.3-2.5l-1.8-5.1c0,0-2.4,0.7-3.6,0.3c-2.5-0.8,0.8-2.8,1.8-3s3.4-1.1,4.4,0.7
					c1.1,1.8,1.7,2.8,1.7,2.8s1.2-4,0.4-13c0-0.4,1-0.4,1.3-0.1c0.8,0.9,2.2,3.5,2.3,11.5c0,0,0.1-9.3,1.7-10.3
					c1.3-0.8,2,3.8,1.1,11.5c0,0,1.7-6.7,3-6.7c2.1,0,0,17.9-5.2,23.2L234.5,121.4z"/>
				<path class="st9" d="M244.3,118.7c-0.1,0.9-0.2,1.8-0.3,2.6v0c-0.4,3-0.8,5.6-1.4,7.9c0,0.1,0,0.2-0.1,0.3
					c-1.6,6.5-1.9,9.7-7.3,8.8l-5.6-6.3l-0.1-0.1l-0.4-0.5l1.1-3.3l0.1-0.4l0.8-2.4l0.1-0.3l1.4-4.2l0.6-1.7L244.3,118.7z"/>
			</g>
			<g>
				<path class="st10" d="M140.7,349.8l-1.4,4.4c-9.7,3.2-15.4,6.9-15.8,11.1h28.2l2.3-14.9C148.2,351.9,143.6,351,140.7,349.8z"/>
				<path class="st9" d="M144.2,338.8l-3.5,11c2.9,1.1,7.5,2.1,13.2,0.7l1.5-9.6L144.2,338.8z"/>
				<path class="st9" d="M192.4,349.3l0.8-11.2l-13.2,0.7l-0.7,10.4C184.8,351,189.5,350.3,192.4,349.3z"/>
				<path class="st10" d="M208.3,365.4c-0.4-4.3-5.3-10.1-16.2-11.5l0.3-4.5c-2.9,0.9-7.5,1.6-13.1-0.2l-1.1,16.2H208.3z"/>
			</g>
			<polygon class="st9" points="181.7,124.3 165.7,124.4 165.7,100.3 181.2,100.3 181.2,101.8 181.3,109.4 181.4,121.7 			"/>
			<path class="st11" d="M181.3,110.6c-2.9,3-10.3-0.4-13.5-3.7l13.4-3.9L181.3,110.6z"/>
			<path class="st9" d="M185,94.7c0,1.8-0.1,3.6-0.4,5.4c-0.8,4.9-2.8,9.1-7.6,9.2c-11.2,0.3-14.4-6.1-16.5-11.4
				c-2.1-5.3,1.3-17.9,1.3-17.9l14.5-1.4l8,6.5C184.2,85.2,185,89.6,185,94.7z"/>
			<path class="st12" d="M160.8,95c0,0,3.2-0.1,3.8-8.4c5.7,1.9,9.9,0.2,13.2-3.6c2.8,3.7,10.8,4.9,13.4-2.7
				c1.9-5.5-3.4-13.8-11.2-8.8c-7.6-3.8-19.2-3.6-22.5,5.9c0,0-11.6,5.3,0.7,17.1C158.5,94.5,160.8,95,160.8,95z"/>
			<polygon class="st12" points="205,211 196.2,344.4 175.5,344.4 180.7,215 183.8,213.5 			"/>
			<polygon class="st10" points="151,192.8 136.5,344.4 159.1,344.4 180.6,218.5 205,211 206.1,184.1 151.7,182.9 			"/>
			<path class="st13" d="M154.3,193.1c12.3,4.4,41.3-0.6,47.3-6.8l-4.3-8.5l-47.6,6.3L154.3,193.1z"/>
			<path class="st4" d="M200.5,184.3c-0.4,0.2-0.8,0.3-1.2,0.5c-4.6,1.9-9.9,3.5-15.5,4.6c-3.3,0.7-6.8,1.1-10.4,1.3
				c-5.3,0.3-10.8-0.1-16.3-1.3l6.9-64.5l0.8-7.9c0,0,9,11.1,19-1.2L200.5,184.3z"/>
			<path class="st14" d="M173.4,190.6c-5.3,0.3-10.8-0.1-16.3-1.3l6.9-64.5l2.5-3.6C172.6,136.1,178.9,169,173.4,190.6z"/>
			<path class="st5" d="M165.7,114.4c6.9,29.2,9.7,59.2-0.4,92.6c-7.5,2.9-15.7,2.8-24.4,0.3l2.2-60.6l-51,35l-3.1-19.1
				C108.5,143.9,142.4,115.6,165.7,114.4z"/>
			<path class="st14" d="M199.2,184.8c-4.6,1.9-9.9,3.5-15.5,4.6c-3.1-17.6-3.7-46.6-1.3-59.6L199.2,184.8z"/>
			<path class="st15" d="M242.7,129.2c0,0.1,0,0.2-0.1,0.3c-1.6,6.5-1.9,9.7-7.3,8.8l-5.6-6.3l-0.1-0.1l0.7-3.8l0.1-0.4l0.8-2.4
				l0.1-0.3L242.7,129.2z"/>
			<path class="st5" d="M241.7,135.1c0,0-13.7,29-21.8,29.7c-7.9,0.7-11.6-7-11.6-7l5.6,42.4c-6.5,3.1-13.7,4.6-22,3.1
				c-7.4-23.9-10.1-54.8-10.7-89.2c6,0.4,17.8,0.9,22,3.6c7.6,4.9,16.9,22.3,16.9,22.3l10.9-14.8L241.7,135.1z"/>
			<g>
				<path class="st16" d="M74.8,94.2c0,0,0.8-13.9,2.2-13.2c1.4,0.7,4.2,12.7,4.2,12.7l-3,4.9L74.8,94.2z"/>
				<path class="st8" d="M116.5,344.8l0.4,4.6c0.7,8.1-5.2,15.2-13.3,15.9l-1.2,0.1c-8.1,0.7-15.2-5.2-15.9-13.3l-0.4-4.6
					L116.5,344.8z"/>
				
					<rect x="76.1" y="124.6" transform="matrix(0.996 -8.948319e-02 8.948319e-02 0.996 -20.7131 9.1191)" class="st17" width="30.5" height="222"/>
				
					<rect x="84.3" y="120.2" transform="matrix(0.996 -8.948348e-02 8.948348e-02 0.996 -19.1014 8.901)" class="st18" width="10.8" height="194.6"/>
				<polygon class="st12" points="116.5,344.8 86.1,347.5 85.3,338.6 84.7,332.4 83,313.4 113.4,310.6 115.1,329.7 115.7,335.9 				
					"/>
				
					<rect x="85" y="331" transform="matrix(0.996 -8.951984e-02 8.951984e-02 0.996 -29.5085 10.3117)" class="st17" width="30.5" height="6.2"/>
				<path class="st8" d="M66.2,126.4l8.4-33.8c0,0,2.9,1.3,6.4-0.9l15.5,32L66.2,126.4z"/>
			</g>
			<path class="st9" d="M162.5,93.6c-0.1-0.5-2.4-1.2-2.9-1.3c-0.8-0.2-1.6-0.3-2.4,0c-2.7,1.2-2.4,5.2-1,7.2c0.8,1.2,2,2.1,3.4,2.5
				c0.5,0.1,5.2,0.2,5-0.6C164.7,101.4,162.5,93.6,162.5,93.6z"/>
			<path class="st9" d="M76.3,172.4c-0.7-2.2-3.1-3.5-5.3-2.7c-3.5,1.2-6.5,3.2-6.9,6.7c-0.4,3.1,1.1,13.1,8.1,14.4l-0.6-5.1
				c0,0,4.3-1,5.1-2.9C77.4,181.5,77.4,176.1,76.3,172.4z"/>
			<path class="st10" d="M206.1,138c0.4,2.2,0.7,4.4,1,6.6c0.3,2.2,0.6,4.4,0.8,6.6l0.7,6.6c0.2,2.2,0.4,4.4,0.6,6.6l-0.4,0
				c-0.4-2.2-0.7-4.4-1-6.6l-0.8-6.6c-0.2-2.2-0.5-4.4-0.7-6.6c-0.2-2.2-0.4-4.4-0.6-6.6L206.1,138z"/>
			<path class="st10" d="M143.7,137.6c0,2.5-0.1,4.9-0.1,7.4c-0.1,2.5-0.2,4.9-0.3,7.4l-0.4,7.4c-0.2,2.5-0.3,4.9-0.6,7.4l-0.4,0
				c0-2.5,0.1-4.9,0.1-7.4l0.3-7.4c0.1-2.5,0.2-4.9,0.4-7.4c0.2-2.5,0.3-4.9,0.6-7.4L143.7,137.6z"/>
			<path class="st12" d="M173.8,93.3c0.2,0.9-0.2,1.7-0.8,1.8s-1.3-0.4-1.5-1.3c-0.2-0.9,0.2-1.7,0.8-1.8
				C172.9,91.9,173.6,92.5,173.8,93.3z"/>
			<path class="st12" d="M183,92.3c0,0.9-0.6,1.6-1.3,1.6c-0.7,0-1.2-0.8-1.1-1.7c0-0.9,0.6-1.6,1.3-1.6
				C182.6,90.6,183.1,91.4,183,92.3z"/>
			<path class="st11" d="M177.9,93c0.3,0.8,0.3,1.6,0.5,2.2c0.1,0.3,0.2,0.6,0.4,0.8c0.2,0.2,0.5,0.3,0.9,0.4
				c0.4,0.2,0.8,0.4,1.1,0.8c0.3,0.4,0.4,1.1,0.1,1.5c-0.2,0.4-0.6,0.7-0.9,0.9c-0.3,0.2-0.6,0.4-1,0.6l-0.2-0.3
				c0.2-0.3,0.5-0.6,0.8-0.9c0.3-0.3,0.5-0.5,0.6-0.8c0.2-0.4-0.2-0.9-0.8-1.1c-0.3-0.1-0.8-0.3-1.1-0.6c-0.4-0.4-0.5-0.8-0.6-1.2
				c-0.2-0.9,0-1.6-0.1-2.3L177.9,93z"/>
			<path class="st12" d="M169.4,91c0.1-0.6,0.5-1.1,0.9-1.4c0.5-0.4,1.1-0.6,1.7-0.6c1.2-0.1,2.4,0.6,2.9,1.6l-0.3,0.2
				c-0.8-0.6-1.7-1-2.6-0.9c-0.9,0-1.7,0.5-2.3,1.3L169.4,91z"/>
			<path class="st12" d="M178.9,89.9c0.1-0.4,0.4-0.8,0.7-1.2c0.3-0.3,0.8-0.6,1.3-0.7c1-0.2,2.1,0.3,2.5,1.2l-0.3,0.2
				c-0.7-0.4-1.4-0.6-2-0.5c-0.3,0-0.7,0.2-1,0.4c-0.3,0.2-0.6,0.5-0.9,0.7L178.9,89.9z"/>
			<path class="st4" d="M173.8,102c1.6,2.5,3.8,2.8,5.4,0.1L173.8,102z"/>
			<path class="st19" d="M185,94.1c0,1.8-0.2,4.3-0.5,6c-1.1-0.4-1.9-1.4-1.9-2.7C182.6,96.1,183.7,94.3,185,94.1z"/>
			<circle class="st19" cx="169.9" cy="99.1" r="3"/>
			<path class="st11" d="M160.6,96.6c-0.6-0.4-1.1-0.8-1.7-1.1c-0.3-0.1-0.5-0.2-0.7-0.2c-0.2,0-0.5,0.1-0.8,0.4l-0.3-0.2
				c0.1-0.4,0.4-0.8,0.9-0.9c0.5-0.2,1,0,1.3,0.2c0.7,0.4,1.2,1,1.6,1.7L160.6,96.6z"/>
			<path class="st20" d="M76.8,182.8l-4.3,13.1l-0.9-10.2C74.3,185.1,75.7,184,76.8,182.8z"/>
		</g>
		<line class="st21" x1="5.6" y1="365.5" x2="605.6" y2="365.5"/>
	</g>
</g>
</svg>
